<svg viewBox="0 0 1024 1024" xmlns="http://www.w3.org/2000/svg" width="200" height="200" fill="#000000"><path d="M213.333333 85.333333a42.666667 42.666667 0 0 0-42.666666 42.666667v768a42.666667 42.666667 0 0 0 42.666666 42.666667h614.4a42.666667 42.666667 0 0 0 42.666667-42.666667V309.333333a42.666667 42.666667 0 0 0-13.226667-30.933333l-190.72-181.333333A42.666667 42.666667 0 0 0 637.056 85.333333H213.333333z m341.333334 85.333334v170.666666a42.666667 42.666667 0 0 0 42.666666 42.666667h187.733334v469.333333H256V170.666667h298.666667z m199.936 128H640V189.696L754.602667 298.666667zM324.266667 512a42.666667 42.666667 0 0 1 42.666666-42.666667h268.8a42.666667 42.666667 0 1 1 0 85.333334H366.933333a42.666667 42.666667 0 0 1-42.666666-42.666667z m42.666666 153.6a42.666667 42.666667 0 1 0 0 85.333333h192a42.666667 42.666667 0 1 0 0-85.333333H366.933333z"></path></svg>